<svg xmlns="http://www.w3.org/2000/svg" viewBox="0 0 32 32">
  <defs>
    <linearGradient id="g" x1="0%" y1="0%" x2="100%" y2="100%">
      <stop offset="0%" stop-color="#BB854A"/>
      <stop offset="100%" stop-color="#D4A56A"/>
    </linearGradient>
  </defs>
  <rect width="32" height="32" rx="8" fill="url(#g)"/>
  <!-- Lotus petal simplified -->
  <path d="M16 6C16 6 12 12 12 16C12 18.5 13.8 20 16 20C18.2 20 20 18.5 20 16C20 12 16 6 16 6Z" fill="white" opacity="0.9"/>
  <path d="M9 12C9 12 11 17 14 19C15 20 16 19 16 18C16 15 9 12 9 12Z" fill="white" opacity="0.5"/>
  <path d="M23 12C23 12 21 17 18 19C17 20 16 19 16 18C16 15 23 12 23 12Z" fill="white" opacity="0.5"/>
  <circle cx="16" cy="17" r="1.5" fill="white"/>
</svg>